<svg width="117" height="44" viewBox="0 0 117 44" fill="none" xmlns="http://www.w3.org/2000/svg">
<rect x="1.33711" y="9.40602" width="34" height="34" rx="4.5" transform="rotate(-12 1.33711 9.40602)" fill="white" stroke="black"/>
<rect x="43.6985" y="3.55489" width="34" height="34" rx="4.5" transform="rotate(7 43.6985 3.55489)" fill="white" stroke="black"/>
<rect x="75.3371" y="9.40608" width="34" height="34" rx="4.5" transform="rotate(-12 75.3371 9.40608)" fill="white" stroke="black"/>
<path d="M26.5375 31.2701L22.6021 12.7558L16.2207 14.1122L16.733 16.5223L20.3208 15.7597L23.7439 31.8639L26.5375 31.2701Z" fill="black"/>
<path d="M60.0245 12.8443C65.3048 13.4927 67.8013 17.9743 67.0574 24.0328C66.3169 30.0635 62.807 33.8359 57.5266 33.1875C52.2463 32.5392 49.8644 28.0434 50.6049 22.0127C51.3488 15.9542 54.7441 12.196 60.0245 12.8443ZM63.917 23.6472C64.48 19.0617 63.0284 15.9496 59.6935 15.5401C56.3585 15.1306 54.2806 17.8093 53.7175 22.3949C53.1545 26.9805 54.5227 30.0823 57.8576 30.4918C61.1926 30.9013 63.3539 28.2328 63.917 23.6472Z" fill="black"/>
<path d="M94.1507 12.9825C99.3545 11.8764 103.174 15.3011 104.443 21.2717C105.706 27.2149 103.616 31.9245 98.4121 33.0306C93.2083 34.1367 89.4926 30.6613 88.2293 24.718C86.9602 18.7474 88.947 14.0885 94.1507 12.9825ZM101.348 21.9295C100.388 17.4105 98.002 14.9405 94.7154 15.6391C91.4288 16.3377 90.3362 19.547 91.2968 24.066C92.2573 28.5851 94.5608 31.0725 97.8474 30.3739C101.134 29.6753 102.309 26.4486 101.348 21.9295Z" fill="black"/>
</svg>
